<svg width="792" height="773" viewBox="0 0 792 773" fill="none" xmlns="http://www.w3.org/2000/svg">
  <circle cx="396.174" cy="450.001" r="308" fill="#5E576E"/>
  <path d="M297.954 120.081L386.649 451.097C390.945 467.129 407.425 476.644 423.457 472.348L621.145 419.378C637.178 415.082 646.693 398.602 642.397 382.569L553.701 51.5535C549.405 35.5208 532.926 26.0063 516.893 30.3022L319.205 83.2725C303.172 87.5685 293.658 104.048 297.954 120.081Z" fill="#FF4D4D"/>
  <path opacity="0.54" d="M297.948 120.06L335.022 258.425L473.545 244.174C477.466 243.771 481.268 242.599 484.735 240.725C488.202 238.851 491.266 236.312 493.752 233.253C496.239 230.194 498.098 226.675 499.225 222.896C500.351 219.117 500.723 215.153 500.318 211.23L482.611 39.4876L319.162 83.2838C315.355 84.3038 311.787 86.0642 308.66 88.4644C305.534 90.8647 302.911 93.8578 300.941 97.2728C298.971 100.688 297.693 104.458 297.179 108.368C296.666 112.278 296.927 116.251 297.948 120.06Z" fill="#FFA2A2"/>
  <path d="M423.393 472.365L507.873 449.729L398.285 296.582C393.652 290.109 386.641 285.741 378.794 284.439C370.946 283.138 362.906 285.01 356.44 289.643L345.49 297.491L386.658 451.13C388.718 458.82 393.746 465.378 400.636 469.36C407.525 473.343 415.711 474.424 423.393 472.365Z" fill="#BA9BFF"/>
  <g opacity="0.29">
  <mask id="mask0_266_26" style="mask-type:luminance" maskUnits="userSpaceOnUse" x="345" y="283" width="164" height="191">
  <path d="M423.457 472.348L508.125 449.661L398.343 296.361C393.703 289.88 386.678 285.509 378.814 284.208C370.95 282.907 362.891 284.784 356.411 289.425L345.435 297.284L386.649 451.097C388.712 458.796 393.749 465.36 400.652 469.346C407.555 473.331 415.758 474.411 423.457 472.348Z" fill="white"/>
  </mask>
  <g mask="url(#mask0_266_26)">
  <path d="M450.592 509.834C426.27 506.871 403.732 495.552 386.832 477.813C382.558 473.296 378.436 467.439 379.779 461.367C381.112 455.337 387.228 451.773 392.884 449.293C428.769 433.748 469.182 432.243 506.124 445.076C511.994 447.144 518.538 450.506 519.627 456.634C520.488 461.483 517.31 466.35 513.096 468.899C508.882 471.448 503.829 472.14 498.923 472.574C464.738 475.536 430.416 468.704 399.97 452.878C388.26 446.763 376.818 438.921 370.353 427.401C363.889 415.88 363.77 399.963 373.075 390.586C379.324 384.29 388.438 381.962 397.113 380.106C421.389 374.914 445.989 371.378 470.744 369.523C484.357 368.504 501.349 369.954 506.7 382.513C511.073 392.776 503.955 405.107 493.953 410.049C483.952 414.992 472.157 414.315 461.117 412.705C421.3 406.836 383.759 390.488 352.34 365.336C344.762 359.251 336.854 350.392 339.591 341.067C341.837 333.412 350.227 329.559 357.832 327.149C379.355 320.338 401.919 317.414 424.467 318.514C435.647 319.065 449.726 323.548 450.308 334.726C450.723 342.683 442.97 349.203 435.064 350.189C427.158 351.174 419.357 348.063 412.151 344.667C378.125 328.588 348.236 304.927 324.777 275.5" stroke="white" stroke-width="2" stroke-miterlimit="10"/>
  </g>
  </g>
  <path d="M532.367 413.898L235.586 242.551C221.212 234.252 202.831 239.177 194.532 253.552L92.2014 430.794C83.9022 445.169 88.8273 463.549 103.202 471.848L399.983 643.195C414.357 651.494 432.738 646.569 441.037 632.194L543.368 454.952C551.667 440.578 546.742 422.197 532.367 413.898Z" fill="#AF626A"/>
  <path opacity="0.54" d="M532.386 413.908L408.332 342.285L320.458 450.312C317.971 453.369 316.111 456.887 314.984 460.663C313.858 464.44 313.486 468.402 313.892 472.323C314.297 476.244 315.471 480.048 317.346 483.516C319.221 486.985 321.762 490.051 324.822 492.539L458.782 601.458L543.39 454.913C545.361 451.5 546.639 447.732 547.153 443.824C547.666 439.917 547.404 435.945 546.382 432.138C545.361 428.33 543.599 424.76 541.197 421.632C538.796 418.504 535.802 415.879 532.386 413.908Z" fill="#6E4343"/>
  <path d="M194.566 253.493L150.835 329.236L336.617 360.037C344.47 361.339 352.517 359.47 358.986 354.841C365.455 350.212 369.817 343.203 371.112 335.355L373.306 322.063L235.557 242.534C228.662 238.553 220.47 237.471 212.782 239.527C205.095 241.582 198.542 246.606 194.566 253.493Z" fill="#BA9BFF"/>
  <g opacity="0.29">
  <mask id="mask1_266_26" style="mask-type:luminance" maskUnits="userSpaceOnUse" x="150" y="238" width="224" height="123">
  <path d="M194.532 253.552L150.705 329.463L336.732 360.235C344.596 361.536 352.655 359.66 359.135 355.019C365.615 350.378 369.987 343.353 371.288 335.489L373.491 322.17L235.586 242.551C228.683 238.566 220.48 237.486 212.781 239.549C205.082 241.612 198.518 246.649 194.532 253.552Z" fill="white"/>
  </mask>
  <g mask="url(#mask1_266_26)">
  <path d="M148.839 246.232C168.132 231.129 192.072 223.196 216.566 223.789C222.782 223.961 229.838 225.188 233.182 230.431C236.504 235.637 234.699 242.483 232.453 248.235C218.071 284.602 190.559 314.243 155.363 331.29C149.749 333.979 142.745 336.229 137.641 332.665C133.604 329.845 132.409 324.157 133.587 319.375C134.765 314.593 137.848 310.53 141.01 306.754C163.089 280.487 192.189 261.049 224.908 250.71C237.512 246.754 251.148 244.21 263.865 247.784C276.582 251.359 287.922 262.53 287.972 275.74C288.006 284.611 283.207 292.702 278.385 300.148C264.891 320.985 249.996 340.88 233.803 359.697C224.899 370.044 211.858 381.033 199.194 375.936C188.845 371.771 185.159 358.019 188.736 347.452C192.313 336.885 201.132 329.023 210.077 322.356C242.382 298.351 280.487 283.365 320.489 278.933C330.15 277.877 342.006 278.55 346.665 287.079C350.489 294.08 347.281 302.737 343.608 309.819C333.205 329.854 319.317 347.877 302.595 363.043C294.3 370.558 281.175 377.344 272.859 369.851C266.94 364.518 267.811 354.426 272.705 348.139C277.598 341.851 285.314 338.535 292.812 335.841C328.241 323.151 366.107 318.747 403.503 322.967" stroke="white" stroke-width="2" stroke-miterlimit="10"/>
  </g>
  </g>
  <path d="M690.944 600.271L690.944 257.578C690.944 240.979 677.489 227.524 660.89 227.524L456.229 227.524C439.63 227.524 426.175 240.979 426.175 257.578L426.175 600.271C426.175 616.869 439.63 630.324 456.229 630.324L660.89 630.324C677.489 630.324 690.944 616.869 690.944 600.271Z" fill="#501628"/>
  <path opacity="0.54" d="M690.945 600.292L690.945 457.047L553.454 434.959C549.562 434.334 545.586 434.482 541.752 435.394C537.918 436.307 534.302 437.966 531.108 440.278C527.915 442.589 525.208 445.508 523.142 448.866C521.076 452.224 519.691 455.957 519.066 459.851L491.72 630.324L660.935 630.325C664.876 630.324 668.778 629.548 672.419 628.038C676.06 626.529 679.369 624.317 682.155 621.528C684.942 618.739 687.153 615.428 688.661 611.785C690.169 608.141 690.945 604.236 690.945 600.292Z" fill="#FFA2A2"/>
  <path d="M660.957 227.524L573.497 227.524L639.714 403.815C642.513 411.268 648.155 417.302 655.398 420.59C662.641 423.878 670.892 424.151 678.337 421.348L690.944 416.602L690.944 257.544C690.944 249.582 687.785 241.946 682.161 236.317C676.538 230.687 668.91 227.524 660.957 227.524Z" fill="#0D0C10"/>
  <g opacity="0.29">
  <mask id="mask2_266_26" style="mask-type:luminance" maskUnits="userSpaceOnUse" x="573" y="227" width="118" height="197">
  <path d="M660.891 227.524L573.236 227.524L639.6 404.015C642.405 411.475 648.059 417.516 655.319 420.808C662.578 424.099 670.848 424.373 678.308 421.567L690.944 416.816L690.944 257.578C690.944 249.607 687.778 241.963 682.142 236.326C676.505 230.69 668.861 227.524 660.891 227.524Z" fill="white"/>
  </mask>
  <g mask="url(#mask2_266_26)">
  <path d="M644.383 184.293C667.109 193.45 685.949 210.216 697.682 231.725C700.642 237.194 703.107 243.918 700.239 249.436C697.391 254.915 690.56 256.775 684.455 257.706C645.769 263.434 606.344 254.429 573.982 232.472C568.847 228.955 563.396 224.014 563.93 217.812C564.354 212.905 568.683 209.027 573.413 207.655C578.144 206.284 583.204 206.924 588.055 207.774C621.842 213.761 653.226 229.243 678.539 252.41C688.267 261.347 697.289 271.884 700.552 284.685C703.815 297.485 699.81 312.891 688.394 319.54C680.729 324.004 671.322 323.894 662.463 323.442C637.671 322.174 612.994 319.222 588.602 314.607C575.189 312.068 559.152 306.27 557.234 292.754C555.666 281.708 565.733 271.64 576.672 269.455C587.612 267.269 598.83 270.976 609.077 275.388C646.018 291.362 678.049 316.87 701.888 349.297C707.632 357.135 712.978 367.739 707.921 376.038C703.77 382.851 694.669 384.401 686.699 384.761C664.147 385.769 641.595 382.754 620.1 375.855C609.443 372.429 597.004 364.455 599.335 353.507C600.994 345.715 610.17 341.423 618.062 342.517C625.953 343.611 632.684 348.635 638.766 353.781C667.47 378.119 690.217 408.71 705.26 443.205" stroke="white" stroke-width="2" stroke-miterlimit="10"/>
  </g>
  </g>
  </svg>
  