<svg width="693" height="616" viewBox="0 0 693 616" fill="none" xmlns="http://www.w3.org/2000/svg">
  <circle cx="308" cy="308" r="308" fill="#FF805D"/>
  <path d="M558.972 23.5427L110.344 143.752C88.615 149.575 75.7199 171.909 81.5423 193.639L153.333 461.566C159.156 483.296 181.491 496.191 203.22 490.369L651.848 370.159C673.577 364.337 686.472 342.002 680.65 320.272L608.859 52.3447C603.036 30.6154 580.701 17.7203 558.972 23.5427Z" fill="#FF4D4D"/>
  <path opacity="0.54" d="M559 23.5345L371.474 73.7819L390.788 261.523C391.334 266.837 392.923 271.99 395.462 276.689C398.002 281.388 401.443 285.541 405.589 288.91C409.735 292.28 414.505 294.8 419.626 296.327C424.748 297.853 430.12 298.357 435.437 297.809L668.201 273.811L608.844 52.2864C607.461 47.1271 605.075 42.2909 601.822 38.0538C598.569 33.8167 594.513 30.2617 589.884 27.5919C585.256 24.922 580.146 23.1896 574.847 22.4934C569.548 21.7972 564.163 22.151 559 23.5345Z" fill="#FFA2A2"/>
  <path d="M81.5188 193.551L112.198 308.048L319.758 159.522C328.532 153.244 334.453 143.741 336.216 133.106C337.98 122.47 335.443 111.573 329.163 102.81L318.528 87.9696L110.3 143.764C99.8768 146.557 90.989 153.371 85.5916 162.708C80.1941 172.045 78.7291 183.14 81.5188 193.551Z" fill="#BA9BFF"/>
  <g opacity="0.29">
  <mask id="mask0_264_59" style="mask-type:luminance" maskUnits="userSpaceOnUse" x="80" y="87" width="258" height="222">
  <path d="M81.5422 193.639L112.29 308.389L320.059 159.602C328.842 153.312 334.766 143.791 336.529 133.133C338.292 122.475 335.749 111.553 329.46 102.77L318.807 87.8947L110.344 143.752C99.9094 146.548 91.0128 153.375 85.6114 162.73C80.21 172.086 78.7463 183.204 81.5422 193.639Z" fill="white"/>
  </mask>
  <g mask="url(#mask0_264_59)">
  <path d="M30.7378 230.414C34.7534 197.451 50.0934 166.906 74.1357 144C80.2578 138.207 88.1956 132.622 96.4249 134.441C104.597 136.248 109.428 144.537 112.788 152.203C133.857 200.838 135.898 255.61 118.505 305.677C115.702 313.634 111.145 322.503 102.84 323.978C96.2676 325.146 89.671 320.838 86.2168 315.127C82.7627 309.416 81.8247 302.567 81.236 295.918C77.2225 249.586 86.4812 203.07 107.93 161.806C116.218 145.936 126.847 130.429 142.46 121.667C158.073 112.905 179.647 112.744 192.355 125.356C200.888 133.825 204.044 146.178 206.559 157.934C213.595 190.835 218.387 224.176 220.902 257.727C222.284 276.177 220.318 299.205 203.296 306.458C189.387 312.384 172.675 302.738 165.976 289.183C159.278 275.628 160.195 259.641 162.378 244.68C170.332 190.716 192.488 139.836 226.577 97.253C234.824 86.983 246.83 76.2649 259.469 79.9741C269.843 83.0187 275.065 94.3897 278.332 104.696C287.563 133.867 291.526 164.448 290.034 195.008C289.288 210.16 283.212 229.241 268.062 230.03C257.279 230.592 248.442 220.085 247.106 209.37C245.77 198.655 249.986 188.082 254.59 178.315C276.382 132.2 308.45 91.6908 348.332 59.8967" stroke="white" stroke-width="2" stroke-miterlimit="10"/>
  </g>
  </g>
  <path d="M189.809 461.902L183.607 463.564L179.052 438.9L188.716 436.31L192.7 443.923L194.623 447.803L194.312 443.513L193.744 434.963L202.358 432.655L210.601 456.331L204.192 458.048L199.337 444.132L197.688 438.964L199.095 456.83L193.717 458.271L185.365 442.266L186.644 447.533L189.809 461.902ZM219.288 454.003L212.633 455.787L209.06 442.454L207.619 442.023L206.996 439.695L211.133 437.415L212.802 436.968L214.714 441.712C214.376 438.196 215.731 436.029 218.781 435.212C219.124 435.12 219.498 435.086 219.902 435.11L221.167 442.634C220.809 442.45 220.142 442.489 219.166 442.75C217.765 443.125 216.965 443.737 216.765 444.586L219.288 454.003ZM228.423 451.975L224.132 449.481L223.939 448.76L226.413 444.475L227.196 444.265L231.625 446.7L231.818 447.421L229.206 451.765L228.423 451.975ZM247.082 446.975C246.079 447.244 245.138 447.357 244.257 447.313C243.373 447.255 242.75 447.128 242.388 446.93L241.183 442.681C241.703 442.807 242.111 442.874 242.408 442.883C242.705 442.892 243.073 442.838 243.512 442.72C244.254 442.521 244.779 442.145 245.087 441.591C245.409 441.034 245.43 440.233 245.15 439.189L241.136 424.208L239.661 422.66L247.348 420.6L251.743 437.003C252 437.964 252.175 438.838 252.268 439.623C252.371 440.39 252.368 441.179 252.261 441.988C252.15 442.783 251.912 443.487 251.546 444.101C251.177 444.7 250.619 445.255 249.872 445.764C249.125 446.274 248.195 446.677 247.082 446.975ZM264.319 439.751C264.924 439.589 265.318 439.218 265.501 438.639C265.695 438.042 265.674 437.304 265.438 436.425L263.693 429.914C262.976 427.235 261.985 426.065 260.721 426.403C260.13 426.562 259.734 426.925 259.533 427.494C259.333 428.064 259.35 428.788 259.586 429.667L261.38 436.364C262.076 438.96 263.055 440.089 264.319 439.751ZM264.817 442.268C261.671 443.111 259.179 443.013 257.34 441.974C255.501 440.936 254.162 438.85 253.322 435.718C252.49 432.614 252.6 430.081 253.65 428.121C254.696 426.148 256.875 424.717 260.186 423.83C263.414 422.965 265.945 423.097 267.779 424.225C269.623 425.336 270.953 427.416 271.77 430.466C272.617 433.626 272.48 436.165 271.36 438.085C270.254 440.001 268.073 441.395 264.817 442.268ZM282.772 436.993L276.095 438.782L269.85 415.476L268.415 415.065L267.902 413.149L274.24 410.346L275.58 409.987L278.832 422.125L278.996 421.749C279.102 421.485 279.273 421.16 279.508 420.773C279.756 420.382 280.041 419.99 280.362 419.594C280.68 419.185 281.086 418.804 281.58 418.451C282.084 418.08 282.604 417.823 283.14 417.679C285.022 417.175 286.486 417.335 287.531 418.159C288.59 418.98 289.444 420.599 290.092 423.017C290.114 423.099 290.147 423.223 290.191 423.388C290.222 423.556 290.25 423.689 290.275 423.785L293.075 434.232L286.275 436.054L283.315 425.009C283.01 423.707 282.288 423.208 281.148 423.514C281.038 423.543 280.93 423.58 280.824 423.623C280.731 423.662 280.637 423.724 280.542 423.809C280.447 423.893 280.369 423.958 280.307 424.004C280.26 424.046 280.185 424.125 280.084 424.241C279.996 424.353 279.935 424.428 279.901 424.466C279.881 424.501 279.817 424.592 279.709 424.739C279.615 424.882 279.563 424.962 279.553 424.979L282.772 436.993ZM302.298 431.761L295.642 433.544L292.069 420.212L290.629 419.781L290.038 417.576L294.143 415.173L297.646 414.234L298.358 416.893L298.522 416.517C298.628 416.253 298.799 415.928 299.034 415.541C299.283 415.15 299.567 414.758 299.888 414.362C300.206 413.953 300.612 413.572 301.106 413.219C301.61 412.848 302.13 412.591 302.666 412.447C304.548 411.943 306.012 412.103 307.057 412.927C308.116 413.748 308.97 415.367 309.618 417.785C309.64 417.867 309.673 417.991 309.717 418.156C309.748 418.324 309.776 418.457 309.802 418.553L312.601 429L305.801 430.822L302.841 419.777C302.536 418.475 301.814 417.976 300.674 418.282C300.591 418.304 300.511 418.333 300.432 418.369C300.367 418.401 300.302 418.433 300.237 418.465C300.186 418.494 300.124 418.54 300.053 418.603C299.992 418.649 299.937 418.693 299.89 418.735C299.838 418.763 299.786 418.814 299.732 418.888C299.674 418.947 299.628 418.996 299.595 419.035C299.561 419.073 299.512 419.138 299.448 419.229C299.394 419.302 299.35 419.358 299.316 419.397C299.296 419.432 299.254 419.494 299.19 419.585C299.136 419.658 299.099 419.713 299.079 419.747L302.298 431.761ZM330.48 420.587C331.524 420.308 332.148 419.449 332.351 418.01C332.568 416.568 332.28 414.363 331.484 411.396L330.927 409.314C330.345 407.144 329.635 405.538 328.796 404.496C327.958 403.455 327.058 403.063 326.096 403.32L324.551 403.734L329.161 420.941L330.48 420.587ZM332.063 423.94C331.568 424.072 330.792 424.251 329.733 424.476C328.691 424.711 327.621 424.975 326.522 425.27L323.246 426.148L316.775 401.997L320.051 401.119C320.968 400.859 321.962 400.556 323.032 400.21C324.103 399.864 324.947 399.609 325.565 399.443C329.068 398.504 331.839 398.815 333.876 400.374C335.927 401.93 337.457 404.59 338.466 408.354C338.808 409.632 339.045 410.872 339.175 412.073C339.32 413.272 339.315 414.517 339.161 415.81C339.003 417.089 338.679 418.243 338.189 419.273C337.699 420.302 336.933 421.236 335.892 422.075C334.85 422.913 333.574 423.535 332.063 423.94ZM351.796 416.311C352.4 416.149 352.794 415.779 352.978 415.2C353.171 414.603 353.15 413.865 352.915 412.986L351.17 406.474C350.452 403.795 349.461 402.625 348.197 402.964C347.607 403.122 347.211 403.486 347.01 404.055C346.809 404.624 346.827 405.348 347.062 406.228L348.857 412.925C349.552 415.521 350.532 416.65 351.796 416.311ZM352.294 418.828C349.148 419.671 346.655 419.573 344.816 418.535C342.977 417.496 341.638 415.411 340.799 412.279C339.967 409.174 340.076 406.642 341.127 404.682C342.173 402.708 344.352 401.278 347.663 400.391C350.891 399.526 353.422 399.657 355.256 400.786C357.099 401.897 358.43 403.977 359.247 407.027C360.093 410.186 359.957 412.726 358.837 414.646C357.731 416.562 355.55 417.956 352.294 418.828ZM370.258 402.133C369.791 400.388 369.37 399.175 368.996 398.495C368.623 397.815 368.195 397.539 367.715 397.668C367.302 397.779 366.986 397.944 366.766 398.165C366.541 398.373 366.41 398.651 366.371 399C366.328 399.335 366.33 399.673 366.377 400.014C366.435 400.337 366.53 400.746 366.662 401.241L367.126 402.972L370.258 402.133ZM371.58 413.661C370.041 414.073 368.639 414.198 367.374 414.037C366.122 413.871 365.055 413.458 364.171 412.797C363.3 412.132 362.574 411.318 361.992 410.355C361.407 409.378 360.941 408.244 360.595 406.953C359.77 403.875 359.929 401.337 361.072 399.337C362.215 397.338 364.195 395.961 367.011 395.206C369.717 394.481 371.825 394.601 373.335 395.566C374.842 396.517 375.972 398.4 376.727 401.217L377.34 403.504L367.922 406.027L368.027 406.419C368.244 407.229 368.505 407.873 368.81 408.351C369.129 408.825 369.486 409.142 369.882 409.301C370.278 409.46 370.659 409.534 371.024 409.525C371.39 409.515 371.82 409.444 372.314 409.312C372.795 409.183 373.294 408.983 373.81 408.712C374.34 408.438 374.852 408.094 375.345 407.682C375.852 407.267 376.25 406.829 376.539 406.369L378.313 408.124C378.025 409.085 377.462 409.979 376.624 410.807C375.796 411.618 374.954 412.241 374.099 412.676C373.244 413.112 372.404 413.44 371.58 413.661Z" fill="white"/>
  </svg>
  